REM DIRINDEX 1\2\4,1\2\5,1\2\6,1\3\7,1\3\8,1\3\9,1\3\10
REM DIRNAME folder01,folder02,folder03,folder04,folder05,folder06,folder07,folder08,folder09,folder10
TITLE ""
FILE "b_41.mp3" MP3
  TRACK 01 AUDIO
    TITLE "0:"
    INDEX 01 00:00:00
  TRACK 02 AUDIO
    TITLE "10:cjc058_3641"
    INDEX 01 00:00:15
  TRACK 03 AUDIO
    TITLE "0:"
    INDEX 01 00:03:70
  TRACK 04 AUDIO
    TITLE "7:cjc058_3642"
    INDEX 01 00:04:42
  TRACK 05 AUDIO
    TITLE "0:"
    INDEX 01 00:06:08
  TRACK 06 AUDIO
    TITLE "8:cjc058_3643"
    INDEX 01 00:06:45
  TRACK 07 AUDIO
    TITLE "0:"
    INDEX 01 00:09:69
  TRACK 08 AUDIO
    TITLE "9:cjc058_3644"
    INDEX 01 00:10:37
  TRACK 09 AUDIO
    TITLE "0:"
    INDEX 01 00:15:66
  TRACK 10 AUDIO
    TITLE "7:cjc058_3645"
    INDEX 01 00:17:02
  TRACK 11 AUDIO
    TITLE "0:"
    INDEX 01 00:18:15
  TRACK 12 AUDIO
    TITLE "8:cjc058_3646"
    INDEX 01 00:18:52
  TRACK 13 AUDIO
    TITLE "0:"
    INDEX 01 00:22:54
  TRACK 14 AUDIO
    TITLE "9:cjc058_3647"
    INDEX 01 00:23:24
  TRACK 15 AUDIO
    TITLE "0:"
    INDEX 01 00:27:24
  TRACK 16 AUDIO
    TITLE "7:cjc058_3648"
    INDEX 01 00:28:37
  TRACK 17 AUDIO
    TITLE "0:"
    INDEX 01 00:29:60
  TRACK 18 AUDIO
    TITLE "8:cjc058_3649"
    INDEX 01 00:30:18
  TRACK 19 AUDIO
    TITLE "0:"
    INDEX 01 00:33:34
  TRACK 20 AUDIO
    TITLE "9:cjc058_3650"
    INDEX 01 00:34:06
  TRACK 21 AUDIO
    TITLE "0:"
    INDEX 01 00:37:28
  TRACK 22 AUDIO
    TITLE "7:cjc058_3651"
    INDEX 01 00:38:39
  TRACK 23 AUDIO
    TITLE "0:"
    INDEX 01 00:40:03
  TRACK 24 AUDIO
    TITLE "8:cjc058_3652"
    INDEX 01 00:40:38
  TRACK 25 AUDIO
    TITLE "0:"
    INDEX 01 00:43:15
  TRACK 26 AUDIO
    TITLE "9:cjc058_3653"
    INDEX 01 00:43:62
  TRACK 27 AUDIO
    TITLE "0:"
    INDEX 01 00:48:26
  TRACK 28 AUDIO
    TITLE "7:cjc058_3654"
    INDEX 01 00:49:39
  TRACK 29 AUDIO
    TITLE "0:"
    INDEX 01 00:50:72
  TRACK 30 AUDIO
    TITLE "8:cjc058_3655"
    INDEX 01 00:51:32
  TRACK 31 AUDIO
    TITLE "0:"
    INDEX 01 00:53:11
  TRACK 32 AUDIO
    TITLE "9:cjc058_3656"
    INDEX 01 00:53:58
  TRACK 33 AUDIO
    TITLE "0:"
    INDEX 01 00:58:42
  TRACK 34 AUDIO
    TITLE "7:cjc058_3657"
    INDEX 01 00:59:55
  TRACK 35 AUDIO
    TITLE "0:"
    INDEX 01 01:01:09
  TRACK 36 AUDIO
    TITLE "8:cjc058_3658"
    INDEX 01 01:01:44
  TRACK 37 AUDIO
    TITLE "0:"
    INDEX 01 01:04:58
  TRACK 38 AUDIO
    TITLE "9:cjc058_3659"
    INDEX 01 01:05:28
  TRACK 39 AUDIO
    TITLE "0:"
    INDEX 01 01:08:66
  TRACK 40 AUDIO
    TITLE "7:cjc058_3660"
    INDEX 01 01:10:00
  TRACK 41 AUDIO
    TITLE "0:"
    INDEX 01 01:11:27
  TRACK 42 AUDIO
    TITLE "8:cjc058_3661"
    INDEX 01 01:11:62
  TRACK 43 AUDIO
    TITLE "0:"
    INDEX 01 01:14:33
  TRACK 44 AUDIO
    TITLE "9:cjc058_3662"
    INDEX 01 01:15:03
  TRACK 45 AUDIO
    TITLE "0:"
    INDEX 01 01:18:15
  TRACK 46 AUDIO
    TITLE "7:cjc058_3663"
    INDEX 01 01:19:23
  TRACK 47 AUDIO
    TITLE "0:"
    INDEX 01 01:20:42
  TRACK 48 AUDIO
    TITLE "8:cjc058_3664"
    INDEX 01 01:21:02
  TRACK 49 AUDIO
    TITLE "0:"
    INDEX 01 01:23:42
  TRACK 50 AUDIO
    TITLE "9:cjc058_3665"
    INDEX 01 01:24:14
  TRACK 51 AUDIO
    TITLE "0:"
    INDEX 01 01:29:23
  TRACK 52 AUDIO
    TITLE "7:cjc058_3666"
    INDEX 01 01:30:34
  TRACK 53 AUDIO
    TITLE "0:"
    INDEX 01 01:32:00
  TRACK 54 AUDIO
    TITLE "8:cjc058_3667"
    INDEX 01 01:32:35
  TRACK 55 AUDIO
    TITLE "0:"
    INDEX 01 01:35:06
  TRACK 56 AUDIO
    TITLE "9:cjc058_3668"
    INDEX 01 01:35:55
  TRACK 57 AUDIO
    TITLE "0:"
    INDEX 01 01:38:49
  TRACK 58 AUDIO
    TITLE "7:cjc058_3669"
    INDEX 01 01:39:59
  TRACK 59 AUDIO
    TITLE "0:"
    INDEX 01 01:41:24
  TRACK 60 AUDIO
    TITLE "8:cjc058_3670"
    INDEX 01 01:41:56
  TRACK 61 AUDIO
    TITLE "0:"
    INDEX 01 01:43:19
  TRACK 62 AUDIO
    TITLE "9:cjc058_3671"
    INDEX 01 01:43:68
  TRACK 63 AUDIO
    TITLE "0:"
    INDEX 01 01:46:53
  TRACK 64 AUDIO
    TITLE "7:cjc058_3672"
    INDEX 01 01:47:62
  TRACK 65 AUDIO
    TITLE "0:"
    INDEX 01 01:49:18
  TRACK 66 AUDIO
    TITLE "8:cjc058_3673"
    INDEX 01 01:49:55
  TRACK 67 AUDIO
    TITLE "0:"
    INDEX 01 01:53:06
  TRACK 68 AUDIO
    TITLE "9:cjc058_3674"
    INDEX 01 01:53:53
  TRACK 69 AUDIO
    TITLE "0:"
    INDEX 01 01:55:71
  TRACK 70 AUDIO
    TITLE "7:cjc058_3675"
    INDEX 01 01:57:06
  TRACK 71 AUDIO
    TITLE "0:"
    INDEX 01 01:58:48
  TRACK 72 AUDIO
    TITLE "8:cjc058_3676"
    INDEX 01 01:59:10
  TRACK 73 AUDIO
    TITLE "0:"
    INDEX 01 02:00:31
  TRACK 74 AUDIO
    TITLE "9:cjc058_3677"
    INDEX 01 02:01:01
  TRACK 75 AUDIO
    TITLE "0:"
    INDEX 01 02:04:47
  TRACK 76 AUDIO
    TITLE "7:cjc058_3678"
    INDEX 01 02:05:58
  TRACK 77 AUDIO
    TITLE "0:"
    INDEX 01 02:07:45
  TRACK 78 AUDIO
    TITLE "8:cjc058_3679"
    INDEX 01 02:08:05
  TRACK 79 AUDIO
    TITLE "0:"
    INDEX 01 02:09:56
  TRACK 80 AUDIO
    TITLE "9:cjc058_3680"
    INDEX 01 02:10:30
  TRACK 81 AUDIO
    TITLE "0:"
    INDEX 01 02:13:30
  TRACK 82 AUDIO
    TITLE "7:cjc058_3681"
    INDEX 01 02:14:43
  TRACK 83 AUDIO
    TITLE "0:"
    INDEX 01 02:16:34
  TRACK 84 AUDIO
    TITLE "8:cjc058_3682"
    INDEX 01 02:16:70
  TRACK 85 AUDIO
    TITLE "0:"
    INDEX 01 02:18:39
  TRACK 86 AUDIO
    TITLE "9:cjc058_3683"
    INDEX 01 02:19:13
  TRACK 87 AUDIO
    TITLE "0:"
    INDEX 01 02:22:54
  TRACK 88 AUDIO
    TITLE "7:cjc058_3684"
    INDEX 01 02:23:64
  TRACK 89 AUDIO
    TITLE "0:"
    INDEX 01 02:25:37
  TRACK 90 AUDIO
    TITLE "8:cjc058_3685"
    INDEX 01 02:25:70
  TRACK 91 AUDIO
    TITLE "0:"
    INDEX 01 02:27:28
  TRACK 92 AUDIO
    TITLE "9:cjc058_3686"
    INDEX 01 02:27:71
  TRACK 93 AUDIO
    TITLE "0:"
    INDEX 01 02:34:36
  TRACK 94 AUDIO
    TITLE "7:cjc058_3687"
    INDEX 01 02:35:47
  TRACK 95 AUDIO
    TITLE "0:"
    INDEX 01 02:37:21
  TRACK 96 AUDIO
    TITLE "8:cjc058_3688"
    INDEX 01 02:37:56
  TRACK 97 AUDIO
    TITLE "0:"
    INDEX 01 02:39:26
  TRACK 98 AUDIO
    TITLE "9:cjc058_3689"
    INDEX 01 02:39:71
  TRACK 99 AUDIO
    TITLE "0:"
    INDEX 01 02:44:72
  TRACK 100 AUDIO
    TITLE "7:cjc058_3690"
    INDEX 01 02:46:04
  TRACK 101 AUDIO
    TITLE "0:"
    INDEX 01 02:47:39
  TRACK 102 AUDIO
    TITLE "8:cjc058_3691"
    INDEX 01 02:47:74
  TRACK 103 AUDIO
    TITLE "0:"
    INDEX 01 02:49:47
  TRACK 104 AUDIO
    TITLE "9:cjc058_3692"
    INDEX 01 02:50:19
  TRACK 105 AUDIO
    TITLE "0:"
    INDEX 01 02:59:54
  TRACK 106 AUDIO
    TITLE "7:cjc058_3693"
    INDEX 01 03:00:65
  TRACK 107 AUDIO
    TITLE "0:"
    INDEX 01 03:02:11
  TRACK 108 AUDIO
    TITLE "8:cjc058_3694"
    INDEX 01 03:02:48
  TRACK 109 AUDIO
    TITLE "0:"
    INDEX 01 03:04:57
  TRACK 110 AUDIO
    TITLE "9:cjc058_3695"
    INDEX 01 03:05:29
  TRACK 111 AUDIO
    TITLE "0:"
    INDEX 01 03:10:69
  TRACK 112 AUDIO
    TITLE "7:cjc058_3696"
    INDEX 01 03:12:05
  TRACK 113 AUDIO
    TITLE "0:"
    INDEX 01 03:13:34
  TRACK 114 AUDIO
    TITLE "8:cjc058_3697"
    INDEX 01 03:13:69
  TRACK 115 AUDIO
    TITLE "0:"
    INDEX 01 03:16:38
  TRACK 116 AUDIO
    TITLE "9:cjc058_3698"
    INDEX 01 03:17:09
  TRACK 117 AUDIO
    TITLE "0:"
    INDEX 01 03:20:21
  TRACK 118 AUDIO
    TITLE "7:cjc058_3699"
    INDEX 01 03:21:30
  TRACK 119 AUDIO
    TITLE "0:"
    INDEX 01 03:23:09
  TRACK 120 AUDIO
    TITLE "8:cjc058_3700"
    INDEX 01 03:23:42
  TRACK 121 AUDIO
    TITLE "0:"
    INDEX 01 03:25:24
  TRACK 122 AUDIO
    TITLE "9:cjc058_3701"
    INDEX 01 03:25:73
  TRACK 123 AUDIO
    TITLE "0:"
    INDEX 01 03:29:53
  TRACK 124 AUDIO
    TITLE "7:cjc058_3702"
    INDEX 01 03:30:64
  TRACK 125 AUDIO
    TITLE "0:"
    INDEX 01 03:32:39
  TRACK 126 AUDIO
    TITLE "8:cjc058_3703"
    INDEX 01 03:33:00
  TRACK 127 AUDIO
    TITLE "0:"
    INDEX 01 03:35:06
  TRACK 128 AUDIO
    TITLE "9:cjc058_3704"
    INDEX 01 03:35:50
  TRACK 129 AUDIO
    TITLE "0:"
    INDEX 01 03:38:44
  TRACK 130 AUDIO
    TITLE "7:cjc058_3705"
    INDEX 01 03:39:57
  TRACK 131 AUDIO
    TITLE "0:"
    INDEX 01 03:41:40
  TRACK 132 AUDIO
    TITLE "8:cjc058_3706"
    INDEX 01 03:42:01
  TRACK 133 AUDIO
    TITLE "0:"
    INDEX 01 03:44:64
  TRACK 134 AUDIO
    TITLE "9:cjc058_3707"
    INDEX 01 03:45:34
  TRACK 135 AUDIO
    TITLE "0:"
    INDEX 01 03:50:43
  TRACK 136 AUDIO
    TITLE "7:cjc058_3708"
    INDEX 01 03:51:51
  TRACK 137 AUDIO
    TITLE "0:"
    INDEX 01 03:52:73
  TRACK 138 AUDIO
    TITLE "8:cjc058_3709"
    INDEX 01 03:53:34
  TRACK 139 AUDIO
    TITLE "0:"
    INDEX 01 03:56:20
  TRACK 140 AUDIO
    TITLE "9:cjc058_3710"
    INDEX 01 03:56:69
  TRACK 141 AUDIO
    TITLE "0:"
    INDEX 01 03:59:70
  TRACK 142 AUDIO
    TITLE "7:cjc058_3711"
    INDEX 01 04:01:02
  TRACK 143 AUDIO
    TITLE "0:"
    INDEX 01 04:02:17
  TRACK 144 AUDIO
    TITLE "8:cjc058_3712"
    INDEX 01 04:02:54
  TRACK 145 AUDIO
    TITLE "0:"
    INDEX 01 04:04:71
  TRACK 146 AUDIO
    TITLE "9:cjc058_3713"
    INDEX 01 04:05:43
  TRACK 147 AUDIO
    TITLE "0:"
    INDEX 01 04:07:71
  TRACK 148 AUDIO
    TITLE "7:cjc058_3714"
    INDEX 01 04:09:07
  TRACK 149 AUDIO
    TITLE "0:"
    INDEX 01 04:10:20
  TRACK 150 AUDIO
    TITLE "8:cjc058_3715"
    INDEX 01 04:10:54
  TRACK 151 AUDIO
    TITLE "0:"
    INDEX 01 04:13:15
  TRACK 152 AUDIO
    TITLE "9:cjc058_3716"
    INDEX 01 04:13:62
  TRACK 153 AUDIO
    TITLE "0:"
    INDEX 01 04:17:50
  TRACK 154 AUDIO
    TITLE "7:cjc058_3717"
    INDEX 01 04:18:61
  TRACK 155 AUDIO
    TITLE "0:"
    INDEX 01 04:20:11
  TRACK 156 AUDIO
    TITLE "8:cjc058_3718"
    INDEX 01 04:20:48
  TRACK 157 AUDIO
    TITLE "0:"
    INDEX 01 04:21:63
  TRACK 158 AUDIO
    TITLE "9:cjc058_3719"
    INDEX 01 04:22:35
  TRACK 159 AUDIO
    TITLE "0:"
    INDEX 01 04:25:32
  TRACK 160 AUDIO
    TITLE "7:cjc058_3720"
    INDEX 01 04:26:45
  TRACK 161 AUDIO
    TITLE "0:"
    INDEX 01 04:28:26
  TRACK 162 AUDIO
    TITLE "8:cjc058_3721"
    INDEX 01 04:28:60
  TRACK 163 AUDIO
    TITLE "0:"
    INDEX 01 04:31:36
  TRACK 164 AUDIO
    TITLE "9:cjc058_3722"
    INDEX 01 04:32:08
  TRACK 165 AUDIO
    TITLE "0:"
    INDEX 01 04:38:48
  TRACK 166 AUDIO
    TITLE "7:cjc058_3723"
    INDEX 01 04:39:57
  TRACK 167 AUDIO
    TITLE "0:"
    INDEX 01 04:41:39
  TRACK 168 AUDIO
    TITLE "8:cjc058_3724"
    INDEX 01 04:41:70
  TRACK 169 AUDIO
    TITLE "0:"
    INDEX 01 04:44:33
  TRACK 170 AUDIO
    TITLE "9:cjc058_3725"
    INDEX 01 04:45:07
  TRACK 171 AUDIO
    TITLE "0:"
    INDEX 01 04:49:28
  TRACK 172 AUDIO
    TITLE "7:cjc058_3726"
    INDEX 01 04:50:38
  TRACK 173 AUDIO
    TITLE "0:"
    INDEX 01 04:53:05
  TRACK 174 AUDIO
    TITLE "8:cjc058_3727"
    INDEX 01 04:53:40
  TRACK 175 AUDIO
    TITLE "0:"
    INDEX 01 04:56:15
  TRACK 176 AUDIO
    TITLE "9:cjc058_3728"
    INDEX 01 04:56:62
  TRACK 177 AUDIO
    TITLE "0:"
    INDEX 01 05:00:48
